# xmcd
#
# Track frame offsets: 
#        150
#        9399
#        22974
#        45627
#        55847
#        76623
#        88848
#        96401
#        112214
#        128970
#        145817
#        162385
#
# Disc length: 2708 seconds
#
# Revision: 2
# Processed by: cddbd v1.5.2PL0 Copyright (c) Steve Scherf et al.
# Submitted via: ExactAudioCopy v0.99pb5
#
DISCID=980a920c
DTITLE=Fred Eaglesmith - Ralph's Last Show [disc 2]
DYEAR=2001
DGENRE=Folk-Rock
TTITLE0=Pretty Good Guy
TTITLE1=John Deere
TTITLE2=Carmelita
TTITLE3=Benchseat Baby
TTITLE4=Spookin' the Horses
TTITLE5=Crazier
TTITLE6=Big Hair
TTITLE7=I Like Trains
TTITLE8=Rodeo Boy
TTITLE9=Crashin' and Burnin'
TTITLE10=Alcohol and Pills
TTITLE11=49 Tons
EXTD=
EXTT0=
EXTT1=
EXTT2=
EXTT3=
EXTT4=
EXTT5=
EXTT6=
EXTT7=
EXTT8=
EXTT9=
EXTT10=
EXTT11=
PLAYORDER=
